HIERARCHY
ROOT Hips
{
	OFFSET	0.000000	0.000000	0.000000
	CHANNELS 6 Xposition Yposition Zposition Zrotation Xrotation Yrotation
	JOINT LeftHip
	{
		OFFSET	4.740440	-3.195970	-0.322709
		CHANNELS 3 Zrotation Xrotation Yrotation
		JOINT LeftKnee
		{
			OFFSET	-1.605680	-15.592300	1.005510
			CHANNELS 3 Zrotation Xrotation Yrotation
			JOINT LeftAnkle
			{
				OFFSET	-0.632401	-16.421000	-1.413730
				CHANNELS 3 Zrotation Xrotation Yrotation
				End Site
				{
					OFFSET	0.008423	-2.933000	-1.684880
				}
			}
		}
	}
	JOINT RightHip
	{
		OFFSET	-4.740440	-3.195970	-0.322709
		CHANNELS 3 Zrotation Xrotation Yrotation
		JOINT RightKnee
		{
			OFFSET	1.605680	-15.592300	1.005510
			CHANNELS 3 Zrotation Xrotation Yrotation
			JOINT RightAnkle
			{
				OFFSET	0.632401	-16.421000	-1.413730
				CHANNELS 3 Zrotation Xrotation Yrotation
				End Site
				{
					OFFSET	-0.008423	-2.933000	-1.684880
				}
			}
		}
	}
	JOINT Chest
	{
		OFFSET	0.000000	3.468200	0.078401
		CHANNELS 3 Zrotation Xrotation Yrotation
		JOINT LeftCollar
		{
			OFFSET	3.857650	15.070700	-0.011583
			CHANNELS 3 Zrotation Xrotation Yrotation
			JOINT LeftShoulder
			{
				OFFSET	3.979720	-1.940530	-0.165223
				CHANNELS 3 Zrotation Xrotation Yrotation
				JOINT LeftElbow
				{
					OFFSET	0.615844	-10.986600	-0.673886
					CHANNELS 3 Zrotation Xrotation Yrotation
					JOINT LeftWrist
					{
						OFFSET	0.826843	-10.854500	1.034220
						CHANNELS 3 Zrotation Xrotation Yrotation
						End Site
						{
							OFFSET	-1.679080	-8.456540	0.936217
						}
					}
				}
			}
		}
		JOINT RightCollar
		{
			OFFSET	-3.857650	15.070700	-0.011583
			CHANNELS 3 Zrotation Xrotation Yrotation
			JOINT RightShoulder
			{
				OFFSET	-3.979720	-1.940530	-0.165223
				CHANNELS 3 Zrotation Xrotation Yrotation
				JOINT RightElbow
				{
					OFFSET	-0.615845	-10.986600	-0.673886
					CHANNELS 3 Zrotation Xrotation Yrotation
					JOINT RightWrist
					{
						OFFSET	-0.826843	-10.854500	1.034220
						CHANNELS 3 Zrotation Xrotation Yrotation
						End Site
						{
							OFFSET	1.679080	-8.456540	0.936217
						}
					}
				}
			}
		}
		JOINT Neck
		{
			OFFSET	0.000000	15.101400	0.055730
			CHANNELS 3 Zrotation Xrotation Yrotation
			JOINT Head
			{
				OFFSET	0.000000	4.185120	1.488260
				CHANNELS 3 Zrotation Xrotation Yrotation
				End Site
				{
					OFFSET	0.000000	7.773420	-0.106016
				}
			}
		}
	}
}
MOTION
Frames:     9
Frame Time: 0.016667
-1.364205	37.834515	7.964748	3.524035	-6.503144	-7.486420	-1.021655	6.538462	4.024631	-3.750882	0.712914	1.400249	2.304262	-0.996022	6.864889	-17.972502	-1.900883	0.734689	1.614295	16.999002	3.092551	11.689985	-8.788797	5.114261	-8.456302	10.286919	0.286733	1.209879	-0.510117	0.981760	3.906423	-1.752835	4.600483	-8.008361	-14.472087	-16.787567	14.623171	11.160570	-16.698908	0.416838	-0.853493	-4.600257	-2.677586	-0.564354	0.319445	-5.108553	-15.463793	10.348089	-10.757817	7.009160	18.738850	1.336050	7.394030	-9.601199	7.905962	9.255434	-10.316739	
-1.364489	37.834549	7.965131	3.524035	-6.503144	-7.486420	-1.021194	6.540518	4.029966	-3.751417	0.711252	1.394741	2.304262	-0.996022	6.864889	-17.976761	-1.903749	0.748286	1.622812	17.001423	3.078107	11.689985	-8.788797	5.114261	-8.456302	10.286919	0.286733	1.212292	-0.518316	0.990881	3.904687	-1.751270	4.591232	-8.008580	-14.466013	-16.787064	14.623171	11.160570	-16.698908	0.409398	-0.854447	-4.593357	-2.670190	-0.562741	0.321166	-5.110705	-15.463514	10.350487	-10.752499	7.001727	18.742388	1.313179	7.396724	-9.588171	7.937977	9.270362	-10.324847	
-1.364489	37.834549	7.965131	3.524035	-6.503144	-7.486420	-1.021194	6.540518	4.029966	-3.751417	0.711252	1.394741	2.304262	-0.996022	6.864889	-17.980978	-1.906601	0.761770	1.631253	17.003832	3.063785	11.689985	-8.788797	5.114261	-8.456302	10.286919	0.286733	1.214629	-0.526239	0.999696	3.904605	-1.761360	4.583057	-8.009221	-14.448462	-16.785629	14.623171	11.160570	-16.698908	0.384238	-0.857632	-4.570007	-2.654225	-0.553800	0.318175	-5.106991	-15.466143	10.354187	-10.738436	6.980407	18.758654	1.292513	7.399146	-9.576399	7.967847	9.285764	-10.331908	
-1.364747	37.834579	7.965445	3.524035	-6.503144	-7.486420	-1.020754	6.542251	4.034657	-3.751914	0.709867	1.389897	2.304262	-0.996022	6.864889	-17.985025	-1.909340	0.774714	1.639355	17.006138	3.050032	11.689985	-8.788797	5.114261	-8.456302	10.286919	0.286733	1.216925	-0.534032	1.008364	3.903011	-1.760289	4.574279	-8.009443	-14.442271	-16.785112	14.623171	11.160570	-16.698908	0.374932	-0.858814	-4.561378	-2.655656	-0.547827	0.319965	-5.108547	-15.468612	10.340657	-10.735809	6.967494	18.773476	1.283512	7.400192	-9.571269	7.985436	9.301690	-10.333678	
-1.364747	37.834579	7.965445	3.524035	-6.503144	-7.486420	-1.020754	6.542251	4.034657	-3.751914	0.709867	1.389897	2.304262	-0.996022	6.864889	-17.989071	-1.912077	0.787612	1.647442	17.008448	3.036329	11.689985	-8.788797	5.114261	-8.456302	10.286919	0.286733	1.219336	-0.542188	1.017443	3.903109	-1.772033	4.565958	-8.010159	-14.422839	-16.783529	14.623171	11.160570	-16.698908	0.341770	-0.863006	-4.530564	-2.661362	-0.525682	0.301395	-5.075812	-15.481483	10.325819	-10.747949	6.933782	18.817211	1.259106	7.422483	-9.554356	8.022799	9.298034	-10.342689	
-1.364747	37.834579	7.965445	3.524035	-6.503144	-7.486420	-1.020754	6.542251	4.034657	-3.751914	0.709867	1.389897	2.304262	-0.996022	6.864889	-17.993223	-1.914890	0.800906	1.655766	17.010813	3.022205	11.689985	-8.788797	5.114261	-8.456302	10.286919	0.286733	1.221949	-0.551067	1.027318	3.901246	-1.770470	4.555950	-8.010404	-14.416127	-16.782976	14.623171	11.160570	-16.698908	0.328721	-0.864658	-4.518457	-2.662083	-0.517405	0.289631	-5.062376	-15.487063	10.334557	-10.752756	6.924629	18.823471	1.253558	7.450216	-9.546987	8.041601	9.287612	-10.343241	
-1.364346	37.835400	7.965982	3.515450	-6.499068	-7.482601	-1.011211	6.539404	4.029784	-3.751914	0.709867	1.389897	2.304262	-0.996022	6.864889	-17.988270	-1.918815	0.807763	1.663480	17.013012	3.009112	11.689985	-8.788797	5.114261	-8.446378	10.284722	0.281478	1.224611	-0.560081	1.037348	3.901212	-1.782470	4.546662	-8.011148	-14.395639	-16.781279	14.623171	11.160570	-16.698908	0.288744	-0.869785	-4.481612	-2.672432	-0.488933	0.254051	-5.012777	-15.507987	10.368367	-10.742496	6.933410	18.828495	1.233413	7.491973	-9.529482	8.078964	9.266490	-10.350142	
-1.364346	37.835400	7.965982	3.515450	-6.499068	-7.482601	-1.011211	6.539404	4.029784	-3.751914	0.709867	1.389897	2.304262	-0.996022	6.864889	-17.991980	-1.921331	0.819625	1.670909	17.015127	2.996506	11.689985	-8.788797	5.114261	-8.446378	10.284722	0.281478	1.225856	-0.564285	1.042026	3.902806	-1.799843	4.543113	-8.011934	-14.374230	-16.779530	14.623171	11.160570	-16.698908	0.288744	-0.869785	-4.481612	-2.691180	-0.481918	0.254624	-4.994037	-15.515778	10.378973	-10.738763	6.936766	18.830027	1.212995	7.524649	-9.513149	8.110703	9.245643	-10.358339	
-1.364346	37.835400	7.965982	3.515450	-6.499068	-7.482601	-1.011211	6.539404	4.029784	-3.751914	0.709867	1.389897	2.304262	-0.996022	6.864889	-17.995476	-1.923712	0.830828	1.677923	17.017124	2.984602	11.689985	-8.788797	5.114261	-8.446378	10.284722	0.281478	1.229390	-0.576253	1.055345	3.901004	-1.803021	4.529944	-8.012455	-14.359867	-16.778328	14.623171	11.160570	-16.698908	0.258846	-0.873496	-4.453631	-2.700352	-0.460159	0.227656	-4.955165	-15.532566	10.413222	-10.727764	6.947043	18.831768	1.136836	7.601681	-9.458968	8.232492	9.234248	-10.384994	
